<?xml version="1.0" encoding="UTF-8" standalone="no"?>
<!-- Created with Inkscape (http://www.inkscape.org/) -->

<svg
   width="48"
   height="48"
   viewBox="0 0 12.7 12.7"
   version="1.1"
   id="svg1"
   inkscape:version="1.3.2 (091e20e, 2023-11-25, custom)"
   sodipodi:docname="manager.svg"
   xmlns:inkscape="http://www.inkscape.org/namespaces/inkscape"
   xmlns:sodipodi="http://sodipodi.sourceforge.net/DTD/sodipodi-0.dtd"
   xmlns="http://www.w3.org/2000/svg"
   xmlns:svg="http://www.w3.org/2000/svg">
  <sodipodi:namedview
     id="namedview1"
     pagecolor="#ffffff"
     bordercolor="#000000"
     borderopacity="0.25"
     inkscape:showpageshadow="2"
     inkscape:pageopacity="0.0"
     inkscape:pagecheckerboard="0"
     inkscape:deskcolor="#d1d1d1"
     inkscape:document-units="mm"
     inkscape:zoom="11.822492"
     inkscape:cx="59.378344"
     inkscape:cy="20.427165"
     inkscape:window-width="3440"
     inkscape:window-height="1369"
     inkscape:window-x="2552"
     inkscape:window-y="-8"
     inkscape:window-maximized="1"
     inkscape:current-layer="layer1" />
  <defs
     id="defs1" />
  <g
     inkscape:label="Layer 1"
     inkscape:groupmode="layer"
     id="layer1">
    <g
       id="g2"
       inkscape:label="person">
      <path
         id="rect1"
         style="fill:#bb8729;fill-opacity:1;stroke:#000000;stroke-width:0.13229167;stroke-linecap:round;stroke-linejoin:bevel;stroke-dasharray:none"
         d="m 5.7376917,4.4550732 c -1.2165675,0 -2.1963547,0.9793174 -2.1963547,2.1958849 v 1.5325154 0.2297359 1.5452003 c 0,0.3606963 0.2904587,0.6511553 0.6511546,0.6511553 h 1.5452001 1.7622517 1.5447304 c 0.3606957,0 0.6511547,-0.290459 0.6511547,-0.6511553 V 8.4132094 8.1834735 6.6509581 c 0,-1.2165675 -0.9793176,-2.1958849 -2.1958851,-2.1958849 z" />
      <circle
         style="fill:#bb8729;fill-opacity:1;stroke:#000000;stroke-width:0.13229167;stroke-linecap:round;stroke-linejoin:bevel;stroke-dasharray:none"
         id="path2"
         cx="6.6185822"
         cy="2.2365549"
         r="1.9939207" />
      <g
         id="g5"
         transform="translate(0.4377101)"
         style="stroke-width:0.13229167;stroke-dasharray:none">
        <path
           id="rect1-7"
           style="fill:#c0948b;fill-opacity:1;stroke:#000000;stroke-width:0.13229167;stroke-linecap:round;stroke-linejoin:bevel;stroke-dasharray:none"
           d="m 1.8900557,9.1767067 c -0.6032342,0 -1.08906105,0.4855939 -1.08906105,1.0888283 v 0.759896 0.113915 0.766187 c 0,0.178851 0.14402377,0.322875 0.32287455,0.322875 h 0.7661865 0.8738115 0.7659535 c 0.1788508,0 0.3228748,-0.144024 0.3228748,-0.322875 v -0.766187 -0.113915 -0.759896 c 0,-0.6032344 -0.4855941,-1.0888283 -1.0888283,-1.0888283 z" />
        <circle
           style="fill:#c0948b;fill-opacity:1;stroke:#000000;stroke-width:0.13229167;stroke-linecap:round;stroke-linejoin:bevel;stroke-dasharray:none"
           id="path2-1"
           cx="2.3268447"
           cy="8.0468187"
           r="0.9886843" />
      </g>
      <g
         id="g3"
         transform="translate(-0.48252412)">
        <path
           id="rect1-7-2"
           style="fill:#c0948b;fill-opacity:1;stroke:#000000;stroke-width:0.13229167;stroke-linecap:round;stroke-linejoin:bevel;stroke-dasharray:none"
           d="m 10.473532,9.1767067 c -0.6032341,0 -1.0890611,0.4855939 -1.0890611,1.0888283 v 0.759896 0.113915 0.766187 c 0,0.178851 0.144023,0.322875 0.322874,0.322875 h 0.7661871 0.873811 0.765954 c 0.178851,0 0.322874,-0.144024 0.322874,-0.322875 v -0.766187 -0.113915 -0.759896 c 0,-0.6032344 -0.485594,-1.0888283 -1.088828,-1.0888283 z" />
        <circle
           style="fill:#c0948b;fill-opacity:1;stroke:#000000;stroke-width:0.13229167;stroke-linecap:round;stroke-linejoin:bevel;stroke-dasharray:none"
           id="path2-1-3"
           cx="10.910321"
           cy="8.0468187"
           r="0.9886843" />
      </g>
      <g
         id="g4"
         style="stroke-width:0.13229167;stroke-dasharray:none">
        <path
           id="rect1-7-29"
           style="fill:#c0948b;fill-opacity:1;stroke:#000000;stroke-width:0.13229167;stroke-linecap:round;stroke-linejoin:bevel;stroke-dasharray:none"
           d="m 6.1817944,9.1767063 c -0.603235,0 -1.0890614,0.485594 -1.0890614,1.0888287 v 0.759896 0.113915 0.766187 c 0,0.178851 0.1440237,0.322875 0.3228744,0.322875 h 0.766187 0.873811 0.765954 c 0.17885,0 0.322874,-0.144024 0.322874,-0.322875 v -0.766187 -0.113915 -0.759896 c 0,-0.6032347 -0.485594,-1.0888287 -1.088828,-1.0888287 z" />
        <circle
           style="fill:#c0948b;fill-opacity:1;stroke:#000000;stroke-width:0.13229167;stroke-linecap:round;stroke-linejoin:bevel;stroke-dasharray:none"
           id="path2-1-37"
           cx="6.6185827"
           cy="8.0468187"
           r="0.9886843" />
      </g>
    </g>
  </g>
</svg>
