<?xml version="1.0" encoding="UTF-8" standalone="no"?>
<!-- Created with Inkscape (http://www.inkscape.org/) -->

<svg
   width="48"
   height="48"
   viewBox="0 0 12.7 12.7"
   version="1.1"
   id="svg1"
   inkscape:version="1.3.2 (091e20e, 2023-11-25, custom)"
   sodipodi:docname="phisherman.svg"
   xmlns:inkscape="http://www.inkscape.org/namespaces/inkscape"
   xmlns:sodipodi="http://sodipodi.sourceforge.net/DTD/sodipodi-0.dtd"
   xmlns="http://www.w3.org/2000/svg"
   xmlns:svg="http://www.w3.org/2000/svg">
  <sodipodi:namedview
     id="namedview1"
     pagecolor="#ffffff"
     bordercolor="#000000"
     borderopacity="0.25"
     inkscape:showpageshadow="2"
     inkscape:pageopacity="0.0"
     inkscape:pagecheckerboard="0"
     inkscape:deskcolor="#d1d1d1"
     inkscape:document-units="mm"
     inkscape:zoom="16.719529"
     inkscape:cx="46.681938"
     inkscape:cy="26.107195"
     inkscape:window-width="3440"
     inkscape:window-height="1369"
     inkscape:window-x="2552"
     inkscape:window-y="-8"
     inkscape:window-maximized="1"
     inkscape:current-layer="layer1" />
  <defs
     id="defs1" />
  <g
     inkscape:label="Layer 1"
     inkscape:groupmode="layer"
     id="layer1">
    <rect
       style="fill:#61ce53;fill-opacity:1;stroke:#000000;stroke-width:0.1;stroke-linecap:round;stroke-dasharray:none"
       id="rect4"
       width="1.2501599"
       height="4.0785484"
       x="5.20366"
       y="-6.9308343"
       rx="0.62507993"
       ry="0.62507993"
       transform="rotate(90)" />
    <path
       id="rect1"
       style="fill:#4f55a3;fill-opacity:1;stroke:#000000;stroke-width:0.158033;stroke-linecap:round"
       d="M 10.833369,5.1747712 C 9.3667539,5.1413728 9.4441614,5.7590657 9.3773646,7.4623897 9.3105677,9.1657135 6.0044864,9.5162545 5.954389,7.3620508 5.9042912,5.2078465 4.8915599,4.9740933 4.8915599,4.9740933 v 2.9594531 c 0,0.8254343 0.3331833,1.5703024 0.8730577,2.1076636 v 1.705217 c 0,0.468202 0.3773338,0.845245 0.8457917,0.845245 0.4684581,0 0.8452464,-0.377043 0.8452464,-0.845245 v -0.870332 c 0.1329863,0.01807 0.2687118,0.02836 0.406809,0.02836 0.057347,0 0.1141594,-0.0017 0.1706852,-0.005 v 0.846883 c 0,0.468202 0.3773336,0.845245 0.8457917,0.845245 0.4684578,0 0.8457921,-0.377043 0.8457921,-0.845245 v -1.49576 C 10.401191,9.7069733 10.833369,8.8728373 10.833369,7.9335464 Z" />
    <path
       id="path3"
       style="fill:#66d258;fill-opacity:1;stroke:#000000;stroke-width:0.158033;stroke-linecap:round"
       d="m 5.6337407,0.17418431 c -0.061886,0.001672 -0.1240059,0.018013 -0.1815916,0.0512601 C 5.2678748,0.33183527 5.2050656,0.56631359 5.3114565,0.7505879 L 6.0007413,1.9437487 C 5.3239276,2.4873883 4.8915599,3.3217918 4.8915599,4.2613597 v 0.7127336 c 0,0 1.0127313,0.2337532 1.0628291,2.3879575 0.050097,2.1542037 3.3561787,1.8036627 3.4229756,0.1003393 0.066798,-1.703324 -0.010616,-2.3210169 1.4560044,-2.2876184 v -0.913412 c 0,-0.8987539 -0.395759,-1.7011812 -1.0224755,-2.2450835 L 10.541624,0.7505879 C 10.648014,0.56631359 10.585206,0.33183527 10.40093,0.22544442 10.216657,0.11905356 9.9827235,0.18186264 9.8763322,0.36613705 L 9.1690522,1.5909264 C 8.7751163,1.3986388 8.3318987,1.290455 7.8624647,1.290455 c -0.4298254,0 -0.8375249,0.091263 -1.2057031,0.2541192 L 5.9767472,0.36613705 C 5.9036034,0.23944842 5.7698903,0.17050677 5.6337407,0.17418431 Z" />
    <path
       style="fill:#d7d459;fill-opacity:1;stroke:#000000;stroke-width:0.105526;stroke-linecap:round"
       d="m 5.4948406,2.4633972 c 0,0 -1.5945906,0.072624 -1.5611921,0.4400079 0.033399,0.3673839 1.3693405,0.2671884 2.3545976,0.2671884 0.9852569,0 3.8131879,-0.2679193 4.2186639,-0.2675539 0.405476,3.63e-4 1.058306,0.033764 1.125103,-0.1499281 C 11.69881,2.5694196 11.364825,2.4358253 11.080937,2.2187347 10.79705,2.0016442 9.9312891,1.807741 9.9496263,1.7759789 9.9679635,1.7442168 8.8154118,2.2033209 9.1690522,1.5909264 9.5226917,0.97853178 6.5075994,0.82031583 6.6567616,1.5445742 6.8059235,2.2688326 6.0007412,1.9437487 6.0007412,1.9437487 c 0,0 -0.2368075,0.095144 -0.5059006,0.5196485 z"
       id="path2" />
    <rect
       style="fill:#ad7657;fill-opacity:1;stroke:#000000;stroke-width:0.1;stroke-linecap:round;stroke-dasharray:none"
       id="rect3"
       width="0.57763153"
       height="7.6196713"
       x="-0.18067923"
       y="0.16117258"
       rx="0.28881577"
       ry="0.38093403"
       transform="rotate(-30)" />
    <circle
       style="fill:#cccccc;fill-opacity:1;stroke:#000000;stroke-width:0.1;stroke-linecap:round;stroke-dasharray:none"
       id="path4"
       cx="3.2774105"
       cy="4.9786263"
       r="0.41144502" />
    <rect
       style="fill:#61ce53;fill-opacity:1;stroke:#000000;stroke-width:0.1;stroke-linecap:round;stroke-dasharray:none"
       id="rect4-5"
       width="1.2501599"
       height="4.0785484"
       x="-9.8123426"
       y="-11.504281"
       rx="0.62507993"
       ry="0.62507993"
       transform="rotate(165)" />
  </g>
</svg>
