<?xml version="1.0" encoding="UTF-8" standalone="no"?>
<!-- Created with Inkscape (http://www.inkscape.org/) -->

<svg
   width="48"
   height="48"
   viewBox="0 0 12.7 12.7"
   version="1.1"
   id="svg1"
   inkscape:version="1.3.2 (091e20e, 2023-11-25, custom)"
   sodipodi:docname="spam-mail.svg"
   xmlns:inkscape="http://www.inkscape.org/namespaces/inkscape"
   xmlns:sodipodi="http://sodipodi.sourceforge.net/DTD/sodipodi-0.dtd"
   xmlns="http://www.w3.org/2000/svg"
   xmlns:svg="http://www.w3.org/2000/svg">
  <sodipodi:namedview
     id="namedview1"
     pagecolor="#505050"
     bordercolor="#eeeeee"
     borderopacity="1"
     inkscape:showpageshadow="0"
     inkscape:pageopacity="0"
     inkscape:pagecheckerboard="0"
     inkscape:deskcolor="#d1d1d1"
     inkscape:document-units="mm"
     inkscape:zoom="8.3597643"
     inkscape:cx="36.12542"
     inkscape:cy="52.752683"
     inkscape:window-width="1718"
     inkscape:window-height="1360"
     inkscape:window-x="3153"
     inkscape:window-y="1186"
     inkscape:window-maximized="0"
     inkscape:current-layer="layer1" />
  <defs
     id="defs1" />
  <g
     inkscape:label="Layer 1"
     inkscape:groupmode="layer"
     id="layer1">
    <path
       id="rect2"
       style="fill:#e0e0d1;fill-opacity:1;stroke:#000000;stroke-width:0.0682384;stroke-dasharray:none;stroke-opacity:1"
       d="M 0.52022761,4.7435759 C 0.33899587,4.9196488 0.2240169,5.1797023 0.2240169,5.471408 v 2.670128 c 0,0.5327472 0.38141267,0.9619796 0.8551321,0.9619796 h 6.4595093 c 0.4737199,0 0.8551325,-0.4292324 0.8551325,-0.9619796 V 5.471408 c 0,-0.2917057 -0.114979,-0.5517592 -0.2962107,-0.7278321 L 4.3089038,7.7353041 Z" />
    <path
       id="path2"
       style="fill:#e0e0d1;fill-opacity:1;stroke:#000000;stroke-width:0.0682384;stroke-dasharray:none;stroke-opacity:1"
       d="M 0.52022761,4.7435759 4.3089038,7.7353041 8.0975801,4.7435759 C 7.9478254,4.5980839 7.7529931,4.5094283 7.5386583,4.5094283 H 1.079149 c -0.21433443,0 -0.40916645,0.088655 -0.55892139,0.2341476 z" />
    <path
       id="rect2-1"
       style="fill:#e0e0d1;fill-opacity:1;stroke:#000000;stroke-width:0.0682384;stroke-dasharray:none;stroke-opacity:1"
       d="M 4.6051145,2.4796798 C 4.4238828,2.6557526 4.3089038,2.9158061 4.3089038,3.2075119 v 2.670128 c 0,0.5327471 0.3814128,0.9619795 0.8551322,0.9619795 h 6.459509 c 0.47372,0 0.855133,-0.4292324 0.855133,-0.9619795 v -2.670128 c 0,-0.2917058 -0.114979,-0.5517593 -0.296211,-0.7278321 L 8.3937908,5.471408 Z" />
    <path
       id="path2-9"
       style="fill:#e0e0d1;fill-opacity:1;stroke:#000000;stroke-width:0.0682384;stroke-dasharray:none;stroke-opacity:1"
       d="M 4.6051145,2.4796798 8.3937908,5.471408 12.182467,2.4796798 C 12.032713,2.3341877 11.83788,2.2455322 11.623545,2.2455322 H 5.164036 c -0.2143344,0 -0.4091665,0.088655 -0.5589215,0.2341476 z" />
    <path
       id="rect2-8"
       style="fill:#e0e0d1;fill-opacity:1;stroke:#000000;stroke-width:0.0682384;stroke-dasharray:none;stroke-opacity:1"
       d="M 2.9841321,6.3953106 C 2.8029004,6.5713834 2.6879214,6.8314369 2.6879214,7.1231426 v 2.6701281 c 0,0.5327463 0.3814128,0.9619793 0.8551322,0.9619793 h 6.4595084 c 0.473721,0 0.855134,-0.429233 0.855134,-0.9619793 V 7.1231426 c 0,-0.2917057 -0.114979,-0.5517592 -0.296211,-0.727832 L 6.7728084,9.3870388 Z" />
    <path
       id="path2-2"
       style="fill:#e0e0d1;fill-opacity:1;stroke:#000000;stroke-width:0.0682384;stroke-dasharray:none;stroke-opacity:1"
       d="M 2.9841321,6.3953106 6.7728084,9.3870388 10.561485,6.3953106 C 10.41173,6.2498185 10.216898,6.161163 10.002562,6.161163 H 3.5430536 c -0.2143344,0 -0.4091665,0.088655 -0.5589215,0.2341476 z" />
  </g>
</svg>
